<?xml version="1.0" standalone="no"?>
<!DOCTYPE svg PUBLIC "-//W3C//DTD SVG 20010904//EN"
 "http://www.w3.org/TR/2001/REC-SVG-20010904/DTD/svg10.dtd">
<svg version="1.0" xmlns="http://www.w3.org/2000/svg"
 width="860.000000pt" height="860.000000pt" viewBox="0 0 860.000000 860.000000"
 preserveAspectRatio="xMidYMid meet">
<metadata>
Created by potrace 1.11, written by Peter Selinger 2001-2013
</metadata>
<g transform="translate(0.000000,860.000000) scale(0.100000,-0.100000)"
fill="#000000" stroke="none">
<path d="M861 6865 c-19 -31 -51 -74 -72 -98 -22 -23 -39 -46 -39 -50 0 -5
-19 -39 -42 -75 -24 -36 -41 -66 -38 -66 3 -1 -7 -14 -21 -30 -14 -15 -53 -80
-85 -144 -32 -65 -62 -119 -66 -122 -6 -5 -43 -81 -114 -237 -8 -17 -14 -38
-14 -48 0 -9 -4 -13 -10 -10 -5 3 -10 -3 -10 -15 0 -12 4 -18 10 -15 6 3 10 2
10 -3 0 -10 113 -62 134 -62 7 0 24 -8 37 -18 27 -20 66 -36 294 -123 33 -12
68 -29 78 -37 9 -8 17 -12 17 -9 0 3 34 -10 75 -28 41 -19 78 -34 80 -34 9 1
169 -64 175 -71 10 -11 287 -120 306 -120 14 0 57 69 69 110 4 14 11 27 15 30
4 3 32 55 63 115 31 61 63 119 72 130 14 19 27 38 105 164 19 30 44 63 57 75
21 19 22 26 12 54 -6 17 -14 30 -17 29 -8 -2 -133 91 -144 108 -4 5 -8 6 -8 2
0 -4 -9 -3 -21 3 -11 7 -18 14 -15 17 6 6 -64 61 -138 108 -25 15 -43 31 -41
35 2 3 -33 30 -77 60 -44 30 -85 61 -91 70 -7 8 -55 46 -107 82 -52 37 -108
81 -125 97 -16 16 -56 45 -87 65 -31 20 -61 42 -65 50 -13 22 -84 66 -107 66
-16 0 -31 -16 -55 -55z"/>
<path d="M7643 6901 c-10 -9 -26 -20 -36 -24 -10 -4 -16 -11 -13 -15 3 -4 -19
-23 -47 -42 -74 -48 -137 -97 -131 -102 2 -3 -12 -13 -31 -24 -19 -10 -35 -22
-35 -26 0 -5 -5 -8 -11 -8 -6 0 -29 -15 -52 -33 -23 -19 -51 -37 -61 -41 -10
-3 -16 -9 -13 -13 6 -5 -90 -79 -106 -82 -4 0 -20 -12 -35 -26 -15 -14 -30
-25 -35 -25 -4 0 -5 -4 -2 -10 3 -5 2 -10 -3 -10 -8 0 -23 -11 -69 -50 -7 -6
-13 -8 -13 -4 0 8 -86 -62 -117 -94 -12 -13 -25 -23 -30 -23 -4 0 -35 -21 -68
-47 -33 -26 -63 -47 -67 -47 -11 0 -17 -9 -22 -38 -2 -15 0 -27 5 -27 5 0 9
-7 9 -16 0 -8 4 -13 9 -9 5 3 31 -31 58 -76 26 -45 58 -92 70 -105 12 -13 18
-24 13 -24 -6 0 -2 -8 8 -18 9 -10 26 -35 37 -57 11 -22 24 -43 28 -46 5 -3
10 -12 11 -20 5 -26 24 -64 50 -102 14 -21 26 -43 26 -50 0 -7 13 -34 28 -62
27 -50 47 -60 82 -44 18 8 119 48 207 80 34 13 60 26 57 28 -4 4 31 19 171 70
28 11 64 25 80 32 17 7 33 13 37 13 3 1 10 4 14 9 4 4 16 7 26 7 10 0 18 4 18
9 0 5 28 19 63 31 34 13 76 29 92 36 17 7 68 27 115 45 47 18 91 39 98 46 7 7
18 14 23 14 5 1 13 2 18 3 5 0 13 4 17 9 4 4 14 7 21 7 21 0 112 43 117 56 7
17 -5 64 -15 58 -5 -3 -9 0 -9 6 0 5 -10 32 -21 58 -66 146 -105 227 -111 230
-5 2 -8 10 -8 18 0 8 -4 14 -8 14 -4 0 -14 16 -21 35 -7 19 -17 35 -22 35 -5
0 -9 7 -9 15 0 17 -58 117 -74 127 -6 4 -11 11 -11 15 0 5 -20 40 -44 78 -25
39 -45 72 -46 75 -3 13 -45 74 -45 65 0 -8 -49 61 -80 114 -12 21 -65 22 -87
2z"/>
<path d="M4196 6163 c-4 -4 -48 -8 -124 -11 -24 -2 -31 -6 -26 -14 5 -9 2 -9
-9 1 -9 7 -17 9 -17 4 0 -5 -6 -10 -12 -10 -75 -4 -402 -85 -422 -104 -6 -5
-18 -9 -27 -9 -10 0 -25 -7 -33 -16 -11 -11 -16 -12 -16 -3 0 9 -4 8 -12 -3
-15 -17 -128 -71 -128 -60 0 4 -4 3 -8 -3 -4 -5 -33 -23 -64 -40 -31 -16 -56
-33 -55 -38 1 -5 -6 -11 -16 -12 -10 -2 -41 -21 -70 -42 -29 -21 -65 -47 -80
-56 -15 -10 -49 -39 -76 -65 -27 -26 -65 -60 -85 -75 -19 -15 -35 -31 -33 -35
1 -4 -26 -36 -61 -70 -34 -35 -62 -70 -62 -77 0 -7 -7 -15 -15 -19 -8 -3 -15
-10 -15 -16 0 -6 -14 -28 -31 -49 -17 -21 -32 -47 -33 -57 -2 -11 -6 -18 -11
-16 -16 7 -135 -241 -135 -281 0 -15 -3 -18 -8 -9 -12 17 -74 -193 -98 -328
-3 -14 -7 -32 -9 -40 -26 -93 -26 -557 -1 -686 2 -12 7 -39 10 -60 15 -91 69
-293 87 -324 21 -35 50 -98 53 -116 6 -25 83 -176 95 -183 5 -3 34 -44 64 -91
69 -104 81 -120 95 -120 6 0 14 -9 17 -20 4 -11 11 -17 17 -14 7 5 8 2 4 -5
-5 -8 13 -31 47 -64 81 -75 80 -74 107 -103 14 -14 50 -42 80 -62 30 -20 67
-48 81 -62 26 -25 51 -39 174 -104 33 -17 65 -36 72 -42 15 -14 243 -97 297
-108 6 -2 28 -6 49 -11 20 -4 37 -12 37 -19 0 -6 5 -4 10 4 5 8 10 10 10 4 0
-39 426 -52 635 -18 22 3 45 6 52 7 7 0 10 4 7 9 -3 4 3 8 13 9 80 3 361 108
348 129 -2 4 7 13 20 20 14 7 25 23 26 34 1 30 1 844 0 887 -1 48 -18 52 -112
27 -95 -25 -109 -28 -139 -32 -14 -2 -45 -7 -70 -11 -95 -15 -297 -21 -350
-10 -73 14 -166 39 -175 46 -5 5 -16 9 -25 9 -9 0 -25 9 -37 19 -11 11 -39 29
-63 41 -44 23 -55 30 -94 66 -12 12 -32 27 -44 33 -12 6 -22 16 -22 21 0 5
-15 25 -33 45 -18 20 -44 57 -57 83 -14 26 -30 51 -37 57 -10 9 -51 101 -51
115 0 3 -5 23 -11 45 -24 81 -34 269 -19 375 9 71 59 210 85 238 13 14 23 29
23 34 0 13 48 77 86 115 18 17 30 34 26 37 -3 3 0 6 6 6 6 0 17 6 24 13 40 37
110 88 115 83 3 -3 17 4 31 14 13 11 32 20 40 20 8 0 12 3 9 7 -9 8 37 32 76
38 16 3 37 10 46 14 23 13 170 34 231 34 57 0 198 -15 240 -25 66 -15 160 -50
160 -58 0 -4 15 -13 33 -21 36 -14 92 -53 123 -86 12 -12 24 -19 27 -17 7 7
123 -155 120 -167 -2 -5 2 -9 9 -9 6 0 9 -3 5 -6 -3 -3 2 -15 12 -25 16 -17
73 -172 76 -209 3 -27 17 -105 23 -125 3 -11 7 -423 9 -915 2 -492 5 -904 8
-916 2 -11 10 -22 17 -23 49 -7 1127 -5 1146 3 16 6 22 18 23 40 3 145 -2
1885 -5 1931 -3 33 -5 68 -5 78 -1 11 -6 15 -12 11 -8 -5 -8 -1 0 14 7 13 7
23 2 27 -6 3 -13 27 -17 53 -16 114 -100 407 -121 421 -8 5 -19 27 -65 126
-14 30 -32 61 -48 80 -8 10 -14 21 -12 24 2 3 -8 20 -22 36 -60 70 -84 101
-86 110 -5 16 -54 75 -64 75 -9 0 -49 47 -44 53 2 2 -21 23 -50 48 -29 24 -82
70 -117 102 -36 31 -69 57 -74 57 -6 0 -36 18 -67 40 -32 22 -64 40 -73 40
-14 0 -14 2 -1 10 13 8 12 10 -3 10 -11 0 -32 9 -48 21 -16 11 -29 17 -29 14
0 -4 -7 1 -16 9 -8 9 -27 19 -42 22 -15 4 -36 12 -47 19 -11 6 -37 17 -57 24
-21 7 -38 17 -38 22 0 5 -10 9 -23 9 -13 0 -27 4 -32 9 -12 11 -210 70 -252
74 -16 2 -33 6 -38 9 -11 6 -171 31 -181 28 -4 -1 -10 3 -13 9 -4 5 -45 13
-91 17 -94 7 -408 12 -414 7z"/>
<path d="M62 4829 c-12 -5 -22 -14 -23 -21 0 -7 -2 -20 -3 -28 -26 -131 -28
-883 -2 -1010 6 -31 19 -50 32 -50 8 0 14 -6 14 -12 0 -9 3 -10 8 -2 4 6 15
10 25 8 9 -1 17 1 17 4 0 4 10 7 23 8 29 0 145 13 177 18 22 4 72 10 170 21
91 10 149 17 172 21 15 2 47 6 70 9 24 2 57 6 73 9 17 2 55 7 85 10 52 6 123
14 180 21 14 2 38 3 53 4 16 1 26 5 23 10 -3 5 4 9 17 9 21 -1 67 5 149 18 21
3 42 13 47 21 11 20 2 103 -13 122 -8 11 -8 13 2 7 7 -4 12 -1 12 9 0 10 -5
13 -12 9 -8 -5 -7 0 2 11 9 11 10 16 3 11 -9 -5 -13 0 -13 14 0 14 4 19 13 14
10 -6 10 -4 0 7 -18 19 -18 349 0 368 10 11 10 13 0 7 -7 -4 -13 -2 -13 3 0 6
5 11 11 11 8 0 7 6 -2 17 -10 11 -10 14 -1 9 9 -5 12 3 13 31 1 21 2 53 3 71
3 50 -1 51 -219 77 -11 1 -30 3 -43 4 -16 1 -21 5 -16 14 6 9 4 9 -8 -1 -10
-8 -19 -9 -22 -4 -5 8 -38 14 -161 27 -29 3 -143 17 -165 20 -14 3 -47 7 -75
10 -27 3 -66 8 -85 10 -19 3 -57 7 -85 10 -27 4 -61 8 -75 10 -14 2 -50 7 -80
11 -30 3 -66 7 -80 9 -14 2 -47 6 -75 10 -27 3 -62 7 -76 9 -14 1 -35 -1 -47
-5z"/>
<path d="M8471 4828 c-24 -4 -69 -10 -100 -13 -31 -3 -74 -7 -96 -10 -22 -3
-60 -7 -85 -10 -25 -3 -80 -10 -124 -16 -91 -12 -130 -17 -206 -24 -67 -7
-126 -14 -160 -20 -47 -8 -135 -18 -153 -17 -10 0 -15 -4 -11 -10 4 -6 3 -8
-2 -5 -6 3 -28 2 -50 -3 -21 -4 -70 -11 -109 -15 -87 -8 -116 -15 -132 -31
-15 -15 -17 -64 -3 -64 6 0 10 -5 10 -11 0 -5 -4 -8 -8 -5 -5 3 -9 -1 -9 -9 0
-8 4 -12 8 -10 12 8 16 -79 14 -328 -1 -166 -5 -241 -13 -249 -7 -7 -12 -17
-12 -22 0 -6 5 -4 10 4 6 9 10 10 10 3 0 -6 -4 -15 -10 -18 -18 -11 -11 -44
13 -57 24 -13 26 -13 110 -22 32 -3 67 -11 79 -17 16 -9 19 -8 12 3 -6 11 -5
11 8 0 9 -7 42 -15 74 -17 33 -3 68 -7 80 -9 12 -2 45 -7 75 -11 71 -8 128
-15 159 -20 14 -2 50 -6 80 -9 30 -3 72 -8 93 -11 69 -10 102 -14 162 -20 33
-4 71 -8 85 -11 14 -2 52 -6 85 -10 77 -7 123 -16 155 -28 21 -8 60 29 61 57
0 12 2 30 4 40 18 96 26 629 13 797 -13 145 -18 193 -23 211 -7 21 -38 27 -94
17z"/>
<path d="M1495 3075 c-33 -12 -73 -29 -90 -36 -16 -7 -32 -13 -35 -14 -35 -9
-86 -30 -92 -39 -4 -5 -28 -18 -55 -27 -138 -47 -272 -103 -267 -110 3 -5 -3
-9 -13 -9 -10 0 -30 -6 -45 -14 -23 -12 -84 -35 -113 -42 -25 -7 -190 -77
-209 -89 -11 -8 -59 -28 -106 -45 -102 -37 -132 -56 -110 -70 10 -7 11 -10 3
-10 -7 0 -13 -7 -13 -16 0 -8 4 -13 8 -10 4 3 21 -25 36 -62 15 -37 43 -100
62 -140 19 -39 34 -77 34 -84 0 -6 3 -8 7 -5 3 4 28 -35 54 -87 26 -51 59
-112 73 -134 13 -22 22 -43 18 -48 -4 -4 -2 -4 4 -1 7 4 14 0 18 -8 3 -8 22
-41 43 -72 20 -32 38 -63 39 -70 1 -6 14 -24 29 -40 15 -15 47 -58 71 -95 52
-80 77 -87 134 -38 19 16 38 30 43 30 4 0 7 6 7 14 0 8 9 18 20 21 11 3 20 11
20 16 0 5 4 8 9 6 14 -4 130 87 131 102 0 8 3 12 6 8 6 -6 116 71 122 86 2 4
9 7 15 7 7 0 32 19 57 41 25 23 72 60 105 82 33 23 75 56 94 74 19 18 38 33
43 33 5 0 15 6 23 13 7 6 26 21 41 32 16 11 38 30 50 43 12 12 25 22 28 22 7
0 85 60 114 88 7 6 18 12 23 12 6 0 16 6 23 13 15 14 1 81 -14 72 -6 -4 -10 1
-10 9 0 9 -4 16 -8 16 -5 0 -19 19 -32 43 -13 23 -52 85 -85 137 -34 52 -81
135 -104 184 -23 48 -48 94 -54 101 -7 7 -19 31 -26 53 -14 40 -45 83 -59 81
-4 0 -34 -11 -67 -24z"/>
<path d="M7018 3083 c-14 -17 -43 -80 -43 -95 0 -4 -7 -16 -16 -26 -9 -10 -37
-62 -63 -115 -25 -53 -51 -99 -56 -102 -6 -4 -8 -11 -5 -16 4 -5 1 -9 -4 -9
-6 0 -11 -7 -11 -15 0 -8 -5 -15 -10 -15 -6 0 -14 -8 -17 -17 -4 -10 -22 -39
-41 -65 -18 -26 -32 -50 -32 -53 1 -4 -12 -23 -29 -42 -17 -19 -31 -39 -31
-44 0 -5 -4 -9 -10 -9 -20 0 -5 -52 21 -71 15 -10 30 -19 33 -19 3 0 14 -7 24
-16 35 -31 77 -64 83 -64 3 0 22 -15 42 -33 19 -19 59 -50 88 -69 30 -20 76
-57 103 -82 27 -24 52 -44 55 -43 3 1 28 -15 55 -36 27 -20 45 -37 41 -37 -10
0 36 -35 55 -42 8 -3 41 -26 72 -52 32 -26 61 -47 65 -47 5 -1 7 -5 6 -10 -2
-5 1 -9 6 -9 5 0 37 -23 71 -50 34 -28 66 -50 71 -50 4 0 31 -22 60 -50 65
-62 96 -66 133 -17 15 19 26 38 26 43 0 6 17 27 37 49 20 22 46 56 57 77 35
63 98 161 123 191 13 16 23 34 23 42 0 7 6 18 14 24 8 7 18 26 21 42 4 16 11
29 16 29 5 0 9 8 9 19 0 10 7 24 15 31 8 7 15 19 15 26 0 8 5 14 10 14 6 0 15
12 21 28 6 15 21 50 34 77 13 28 36 79 51 115 16 36 31 67 35 70 8 6 12 27 10
50 -1 15 -21 24 -160 75 -35 13 -67 29 -71 35 -4 6 -13 13 -21 14 -15 3 -23 6
-113 43 -33 14 -67 26 -75 28 -21 4 -82 30 -156 65 -68 33 -115 52 -130 55 -5
0 -31 11 -56 22 -25 12 -71 29 -102 39 -31 9 -54 21 -52 24 3 4 -17 15 -43 25
-26 9 -69 26 -97 37 -27 11 -54 21 -60 23 -5 1 -23 7 -38 13 -37 16 -41 15
-59 -5z"/>
</g>
</svg>
